{"title":"Beautiful Creatures 2013 1080p x264 ACC - alrmothe","uid":8445718,"size":6916237017,"categoryP":"video","categoryS":"hd___movies","magnet":"?xt=urn:btih:4d55fba48dceada3655cd4157098f91886cd07a7&amp;dn=Beautiful+Creatures+2013+1080p+x264+ACC+-+alrmothe&amp;tr=udp%3A%2F%2Ftracker.openbittorrent.com%3A80&amp;tr=udp%3A%2F%2Fopen.demonii.com%3A1337&amp;tr=udp%3A%2F%2Ftracker.coppersurfer.tk%3A6969&amp;tr=udp%3A%2F%2Fexodus.desync.com%3A6969","seeders":0,"leechers":1,"uploader":".alrmothe","files":22,"time":1367880244,"description":"***************************************************************\n\nBeautiful Creatures 2013 1080p x264 ACC - alrmothe\n\n***************************************************************\n\nTitle : Beautiful Creatures\nYEAR: 2013\nGENRE : Action | Crime | Thriller       \nimdb URL :http://www.imdb.com/title/tt1559547/\nFormat: MP4\nOverall bit rate: 7451 kbps\nFormat version: Version 4 / Version 2\nFile size: 6.44 GiB\nDuration:  2h 03mn\nsub: Arabic,English,French\n***************************************************************\n\nVideo\nFormat : AVC \nFormat/Info : Advanced Video Codec \nFormat profile : &lt;a class=&quot;__cf_email__&quot; href=&quot;/cdn-cgi/l/email-protection&quot; data-cfemail=&quot;ffb7969897bfb3cbd1ce&quot;&gt;[email&amp;#160;protected]&lt;/a&gt;&lt;script data-cfhash='f9e31' type=&quot;text/javascript&quot;&gt;\n/* &lt;![CDATA[ */!function(){try{var t=&quot;currentScript&quot;in document?document.currentScript:function(){for(var t=document.getElementsByTagName(&quot;script&quot;),e=t.length;e--;)if(t[e].getAttribute(&quot;data-cfhash&quot;))return t[e]}();if(t&amp;&amp;t.previousSibling){var e,r,n,i,c=t.previousSibling,a=c.getAttribute(&quot;data-cfemail&quot;);if(a){for(e=&quot;&quot;,r=parseInt(a.substr(0,2),16),n=2;a.length-n;n+=2)i=parseInt(a.substr(n,2),16)^r,e+=String.fromCharCode(i);e=document.createTextNode(e),c.parentNode.replaceChild(e,c)}t.parentNode.removeChild(t);}}catch(u){}}()/* ]]&gt; */&lt;/script&gt; \nFormat settings, CABAC : Yes \nFormat settings, ReFrames : 4 frames  \nCodec ID : V_MPEG4/ISO/AVC  \nBit rate : 7000 kbps \nWidth : 1920 pixels \nHeight : 800 pixels \nDisplay aspect ratio : 16:9 \nFrame rate : 23.976 fps \nColor space : YUV \nChroma subsampling : 4:2:0 \nBit depth : 8 bits \nScan type : Progressive \nBits/(Pixel*Frame) : 0.190 \nStream size: 6.05 GiB \n\n\nAudio \nFormat: ACC\nBit rate :448 Kbps\nChannel(s) : 6 channels\nChannel positions:Front: L C R, Side: L R, LFE\nSampling rate: 48.0 KHz\nBit depth: 24 bits\nCompression mode: Lossy\nStream size: 396 GiB\nLanguage : English\n\n***************************************************************\n\n[Source[/color &lt;a href=&quot;\nhttp://img199.imageshack.us/img199/2480/vlcsnap2013050523h20m12.png&quot; rel=&quot;nofollow&quot; target=&quot;_NEW&quot;&gt;\nhttp://img199.imageshack.us/img199/2480/vlcsnap2013050523h20m12.png&lt;/a&gt;\n\n\n\n[After Encoded [/color &lt;a href=&quot;\nhttp://img811.imageshack.us/img811/8250/vlcsnap2013050523h22m52.png&quot; rel=&quot;nofollow&quot; target=&quot;_NEW&quot;&gt;\nhttp://img811.imageshack.us/img811/8250/vlcsnap2013050523h22m52.png&lt;/a&gt;\n\n\n\n\n\n[color=red]Screenshots[/color] &lt;a href=&quot;\nhttp://img819.imageshack.us/img819/8340/vlcsnap2013050522h42m25.png&quot; rel=&quot;nofollow&quot; target=&quot;_NEW&quot;&gt;\nhttp://img819.imageshack.us/img819/8340/vlcsnap2013050522h42m25.png&lt;/a&gt; &lt;a href=&quot;\nhttp://img812.imageshack.us/img812/2316/vlcsnap2013050523h25m33.png&quot; rel=&quot;nofollow&quot; target=&quot;_NEW&quot;&gt;\nhttp://img812.imageshack.us/img812/2316/vlcsnap2013050523h25m33.png&lt;/a&gt; &lt;a href=&quot;\nhttp://img839.imageshack.us/img839/117/vlcsnap2013050523h00m39.png&quot; rel=&quot;nofollow&quot; target=&quot;_NEW&quot;&gt;\nhttp://img839.imageshack.us/img839/117/vlcsnap2013050523h00m39.png&lt;/a&gt; &lt;a href=&quot;\nhttp://img109.imageshack.us/img109/9247/vlcsnap2013050522h57m43.png&quot; rel=&quot;nofollow&quot; target=&quot;_NEW&quot;&gt;\nhttp://img109.imageshack.us/img109/9247/vlcsnap2013050522h57m43.png&lt;/a&gt; &lt;a href=&quot;\nhttp://img822.imageshack.us/img822/9774/vlcsnap2013050522h55m16.png&quot; rel=&quot;nofollow&quot; target=&quot;_NEW&quot;&gt;\nhttp://img822.imageshack.us/img822/9774/vlcsnap2013050522h55m16.png&lt;/a&gt; &lt;a href=&quot;\nhttp://img811.imageshack.us/img811/2626/vlcsnap2013050522h53m57.png&quot; rel=&quot;nofollow&quot; target=&quot;_NEW&quot;&gt;\nhttp://img811.imageshack.us/img811/2626/vlcsnap2013050522h53m57.png&lt;/a&gt; &lt;a href=&quot;\nhttp://img22.imageshack.us/img22/8167/vlcsnap2013050522h50m06.png&quot; rel=&quot;nofollow&quot; target=&quot;_NEW&quot;&gt;\nhttp://img22.imageshack.us/img22/8167/vlcsnap2013050522h50m06.png&lt;/a&gt;\n[img]http://img803.imageshack.us/img803/6333/beautifulcreatures20131.png[/img]\n\n\n\n\nTrailer\n\n\n\n","torrent":{"xt":"urn:btih:4d55fba48dceada3655cd4157098f91886cd07a7","amp;dn":"Beautiful+Creatures+2013+1080p+x264+ACC+-+alrmothe","amp;tr":["udp%3A%2F%2Ftracker.openbittorrent.com%3A80","udp%3A%2F%2Fopen.demonii.com%3A1337","udp%3A%2F%2Ftracker.coppersurfer.tk%3A6969","udp%3A%2F%2Fexodus.desync.com%3A6969"],"infoHash":"4d55fba48dceada3655cd4157098f91886cd07a7","infoHashBuffer":{"type":"Buffer","data":[77,85,251,164,141,206,173,163,101,92,212,21,112,152,249,24,134,205,7,167]},"announce":[],"urlList":[]}}